<svg id="visual" viewBox="0 0 960 540" width="960" height="540" xmlns="http://www.w3.org/2000/svg" xmlns:xlink="http://www.w3.org/1999/xlink" version="1.1"><rect x="0" y="0" width="960" height="540" fill="#001220"></rect><defs><linearGradient id="grad1_0" x1="43.8%" y1="0%" x2="100%" y2="100%"><stop offset="14.444444444444446%" stop-color="#001220" stop-opacity="1"></stop><stop offset="85.55555555555554%" stop-color="#001220" stop-opacity="1"></stop></linearGradient></defs><defs><linearGradient id="grad2_0" x1="0%" y1="0%" x2="56.3%" y2="100%"><stop offset="14.444444444444446%" stop-color="#001220" stop-opacity="1"></stop><stop offset="85.55555555555554%" stop-color="#001220" stop-opacity="1"></stop></linearGradient></defs><g transform="translate(960, 0)"><path d="M0 486C-69.6 486.4 -139.3 486.7 -186 449C-232.7 411.3 -256.5 335.4 -281.4 281.4C-306.4 227.4 -332.5 195.2 -366.8 151.9C-401.1 108.7 -443.5 54.3 -486 0L0 0Z" fill="#FF8303"></path></g><g transform="translate(0, 540)"><path d="M0 -486C58.6 -461.4 117.2 -436.9 169.9 -410.2C222.6 -383.5 269.4 -354.7 318.9 -318.9C368.4 -283.1 420.7 -240.3 449 -186C477.3 -131.7 481.7 -65.8 486 0L0 0Z" fill="#FF8303"></path></g></svg>