<svg id="visual" viewBox="0 0 1920 1080" width="1920" height="1080" xmlns="http://www.w3.org/2000/svg" xmlns:xlink="http://www.w3.org/1999/xlink" version="1.1"><rect x="0" y="0" width="1920" height="1080" fill="#331903"></rect><defs><linearGradient id="grad1_0" x1="43.8%" y1="0%" x2="100%" y2="100%"><stop offset="14.444444444444446%" stop-color="#331903" stop-opacity="1"></stop><stop offset="85.55555555555554%" stop-color="#331903" stop-opacity="1"></stop></linearGradient></defs><defs><linearGradient id="grad2_0" x1="0%" y1="0%" x2="56.3%" y2="100%"><stop offset="14.444444444444446%" stop-color="#331903" stop-opacity="1"></stop><stop offset="85.55555555555554%" stop-color="#331903" stop-opacity="1"></stop></linearGradient></defs><g transform="translate(1920, 0)"><path d="M0 918C-137.7 916.1 -275.4 914.2 -344 830.6C-412.6 746.9 -412.2 581.5 -499.9 499.9C-587.7 418.4 -763.7 420.6 -848.1 351.3C-932.5 282 -925.3 141 -918 0L0 0Z" fill="#FF8303"></path></g><g transform="translate(0, 1080)"><path d="M0 -918C59.1 -762 118.2 -606 242.2 -584.8C366.3 -563.6 555.3 -677.3 649.1 -649.1C742.9 -621 741.6 -451 770.5 -319.2C799.5 -187.3 858.7 -93.7 918 0L0 0Z" fill="#FF8303"></path></g></svg>